<svg xmlns="http://www.w3.org/2000/svg" xmlns:xlink="http://www.w3.org/1999/xlink" width="200" height="200" viewBox="0 0 200 200">
  <defs>
    <clipPath id="clip-custom_1">
      <rect width="200" height="200"/>
    </clipPath>
  </defs>
  <g id="custom_1" data-name="custom – 1" clip-path="url(#clip-custom_1)">
    <g id="java">
      <g id="Group_3" data-name="Group 3" transform="translate(14 14)">
        <circle id="Ellipse_2" data-name="Ellipse 2" cx="86.5" cy="86.5" r="86.5" fill="#e3e3e3"/>
      </g>
      <g id="Group_4" data-name="Group 4" transform="translate(58.277 38.22)">
        <path id="Path_1" data-name="Path 1" d="M57.282,77.73,60.223,76l-3.287.865c-4.844,1.384-5.536,2.941-5.536,4.152.346,3.114,8.3,5.536,17.473,5.536a49.3,49.3,0,0,0,19.2-3.806l1.038-.346-1.038-.346c-3.287-1.384-5.882-2.768-5.882-2.768l-.173-.173h-.173a74.92,74.92,0,0,1-13.321,1.557c-2.422,0-5.017-.173-8.65-.519-3.287-.346-3.633-1.038-3.633-1.211A1.484,1.484,0,0,1,57.282,77.73Z" transform="translate(-30.975 7.04)" fill="#3969b2"/>
        <path id="Path_2" data-name="Path 2" d="M92.766,76.093l-1.211-.519a14.574,14.574,0,0,1-4.325-2.6l-.173-.173h-.173a91.364,91.364,0,0,1-18.165,1.9,79.986,79.986,0,0,1-10.38-.692c-2.768-.346-3.46-1.038-3.46-1.384-.173-.692.865-1.73,1.211-2.076L58.166,69l-2.6.865c-4.325,1.384-6.4,2.941-6.055,4.671.519,2.941,8.131,4.844,18.684,4.844a85.281,85.281,0,0,0,23.182-3.287Z" transform="translate(-32.378 1.93)" fill="#3969b2"/>
        <path id="Path_3" data-name="Path 3" d="M63.218,57.581c-1.384,4.325,0,9.169,4.325,14.013a6.593,6.593,0,0,1,1.9,5.017,10.027,10.027,0,0,1-3.114,5.709l-3.114,2.6,3.633-1.9c.346-.173,7.439-3.806,8.65-9.342A8.278,8.278,0,0,0,74.117,67.1l-.692-1.038c-2.249-3.287-4.152-5.709-3.46-8.65.865-3.979,6.228-8.477,17.473-15.051L90.033,40.8l-2.941.692C86.054,41.838,66.5,46.682,63.218,57.581Z" transform="translate(-22.725 -18.656)" fill="#f3492c"/>
        <path id="Path_4" data-name="Path 4" d="M74.724,93.5c23.009,0,39.271-4.325,40.136-8.477.173-.692-.173-1.9-2.249-2.941L109.67,80.7l2.422,2.076a1.3,1.3,0,0,1,.519,1.211c-.173.519-.692,1.557-3.806,2.422-6.055,2.076-19.9,3.46-33.562,3.46-12.8,0-22.663-1.038-26.988-2.941-.519-.173-.865-.519-.865-.692.173-.865,3.806-2.422,6.4-2.941a15.476,15.476,0,0,1,3.287-.346h.173l1.557.173L57.6,81.911a5.2,5.2,0,0,0-3.114-.692c-5.017,0-14.532,3.46-14.878,6.574-.173,1.557,1.73,2.768,5.709,3.287A189.069,189.069,0,0,0,74.724,93.5Z" transform="translate(-39.594 10.471)" fill="#3969b2"/>
        <path id="Path_5" data-name="Path 5" d="M66.6,72.98c10.553,0,20.414-1.038,27.507-2.941h.173a37.234,37.234,0,0,1,4.844-2.595l3.46-1.557-3.806.865s-8.131,1.384-16.089,2.076c-5.536.519-11.418.692-16.435.692A62.282,62.282,0,0,1,57.088,69c-3.806-.519-3.806-1.211-3.806-1.211,0-1.038,5.536-2.941,10.726-4.325l2.768-.692L64.008,62.6h-.692a37.845,37.845,0,0,0-16.262,3.979c-.692.346-2.422,1.211-2.249,2.422C45.151,72.115,56.742,72.98,66.6,72.98Z" transform="translate(-35.798 -2.742)" fill="#3969b2"/>
        <path id="Path_6" data-name="Path 6" d="M78.533,64.422l-.692,1.211,1.211-.519a7.338,7.338,0,0,1,2.249-.519c.346,0,.692-.173,1.211-.173a6.221,6.221,0,0,1,6.055,4.5c.519,2.076.346,7.612-11.764,13.84H76.63v.173a.372.372,0,0,1-.346.346L74.9,84.49l1.73-.519C90.3,80.338,94.622,73.937,93.93,69.093,93.411,64.941,89.6,62,84.761,62a11.63,11.63,0,0,0-4.152.692A5.762,5.762,0,0,0,78.533,64.422Z" transform="translate(-13.82 -3.18)" fill="#3969b2"/>
        <path id="Path_7" data-name="Path 7" d="M68.776,88.55l1.557,1.384-.865-1.9a32.174,32.174,0,0,0-3.806-6.055c-4.671-6.747-9.515-13.494,3.633-23.874,8.65-6.747,13.148-13.494,13.494-19.9a11.856,11.856,0,0,0-2.941-9L78.81,28l.346,1.557c2.941,11.591-5.017,17.819-12.8,23.874-3.806,3.114-7.785,6.228-10.38,9.861C50.784,71.25,59.088,79.727,68.776,88.55Z" transform="translate(-28.802 -28)" fill="#f3492c"/>
        <path id="Path_8" data-name="Path 8" d="M113.14,85.822s-1.73,3.287-15.57,5.882a144.244,144.244,0,0,1-26.988,2.249A131.888,131.888,0,0,1,48.957,92.4L47.4,92.05l1.384,1.038c.346.173,3.114,2.076,15.4,2.941,3.46.173,7.266.346,10.9.346h0c18.511,0,38.579-2.768,39.1-10.553l.173-2.422Z" transform="translate(-33.895 12.442)" fill="#3969b2"/>
      </g>
    </g>
  </g>
</svg>
