<svg xmlns="http://www.w3.org/2000/svg" xmlns:xlink="http://www.w3.org/1999/xlink" width="200" height="200" viewBox="0 0 200 200">
  <defs>
    <clipPath id="clip-custom_1">
      <rect width="200" height="200"/>
    </clipPath>
  </defs>
  <g id="custom_1" data-name="custom – 1" clip-path="url(#clip-custom_1)">
    <g id="php">
      <g id="Group_10" data-name="Group 10" transform="translate(14 14)">
        <g id="Group_9" data-name="Group 9">
          <circle id="Ellipse_4" data-name="Ellipse 4" cx="86.5" cy="86.5" r="86.5" fill="#36447f"/>
        </g>
      </g>
      <g id="Layer_2_1_" transform="translate(35 74.815)">
        <g id="Group_12" data-name="Group 12" transform="translate(1.828 -4)">
          <g id="Group_11" data-name="Group 11">
            <path id="Path_11" data-name="Path 11" d="M47.206,59.745c3.161,0,5.223.677,6.323,2.2,1.1,1.354,1.237,3.892.687,7.276-.55,3.553-1.649,6.261-3.3,7.784s-4.124,2.369-7.423,2.369H38.409l3.024-19.628ZM27,99.171h8.247l1.924-12.521h7.148a20.169,20.169,0,0,0,7.7-1.184,14.856,14.856,0,0,0,5.5-4.061,24.812,24.812,0,0,0,3.436-5.245A22.839,22.839,0,0,0,62.739,69.9c.825-5.584.275-9.814-1.924-13.029-2.2-3.046-5.636-4.569-10.447-4.569H34.423Z" transform="translate(-27 -39.948)" fill="#c9d5f7"/>
            <path id="Path_12" data-name="Path 12" d="M61.16,45h8.247L67.483,57.521h7.285c4.536,0,7.835,1.015,9.484,3.046,1.787,2.03,2.337,5.245,1.512,9.645L82.328,92.04H73.943l3.3-20.643c.412-2.369.275-3.892-.412-4.738S74.768,65.3,72.706,65.3h-6.6L61.847,92.04H53.6Z" transform="translate(-5.061 -45)" fill="#c9d5f7"/>
            <path id="Path_13" data-name="Path 13" d="M95.906,59.745c3.161,0,5.223.677,6.323,2.2,1.1,1.354,1.237,3.892.687,7.276-.55,3.553-1.649,6.261-3.3,7.784s-4.124,2.369-7.423,2.369H87.109l3.024-19.628ZM75.7,99.171h8.247l1.924-12.521h7.148a20.169,20.169,0,0,0,7.7-1.184,14.856,14.856,0,0,0,5.5-4.061,24.811,24.811,0,0,0,3.436-5.245,22.84,22.84,0,0,0,1.787-6.261c.825-5.584.275-9.814-1.924-13.029-2.2-3.046-5.636-4.569-10.447-4.569H83.123Z" transform="translate(14.334 -39.948)" fill="#c9d5f7"/>
          </g>
        </g>
      </g>
    </g>
  </g>
</svg>
